<svg width="216" height="328" viewBox="0 0 216 328" fill="none" xmlns="http://www.w3.org/2000/svg">
<path d="M-123.71 211.753C-109.273 259.385 -73.3235 299.836 -22.8744 318.12C53.3941 345.762 136.664 313.266 175.186 244.871L215.856 259.612L171.08 163.926L75.3967 208.703L122.51 225.779C95.1834 265.688 43.4113 283.72 -4.16763 266.476C-37.672 254.332 -61.5655 227.427 -71.1696 195.758C-74.4469 184.951 -76.0484 173.59 -75.8113 162.073L-105.265 175.857C-103.781 192.615 -99.1519 208.574 -91.9297 223.084C-75.4083 260.866 -43.0308 290.707 -2.32796 303.222C-52.9875 292.598 -92.9199 255.373 -108.371 207.874C-108.729 206.774 -109.072 205.67 -109.404 204.56C-112.327 194.761 -114.21 184.545 -114.945 174.06L-129.337 143.303C-132.409 166.665 -130.315 189.962 -123.71 211.753ZM-151.066 66.3976L-106.293 162.083L-10.609 117.306L-55.5249 101.026C-27.8903 62.3777 23.0328 45.1419 69.894 62.1259C113.823 78.0465 141.217 119.347 141.555 163.486L169.141 150.576C167.144 130.462 160.587 111.14 150.12 94.0941C138.795 70.4691 121.065 49.8719 98.1832 35.1843C144.069 56.9939 173.679 101.108 178.578 149.484L195.1 184.792C204.524 110.6 161.84 37.2495 88.5469 10.6839C13.042 -16.6817 -69.3279 14.8878 -108.35 81.88L-151.066 66.3976Z" fill="white" fill-opacity="0.1"/>
</svg>
